<?xml version="1.0" ?><svg viewBox="0 0 282.75 445.54" xmlns="http://www.w3.org/2000/svg"><title/><g data-name="Layer 2" id="Layer_2"><g data-name="pisa, italy, architecture, tourism, landmark, tower, travel" id="pisa_italy_architecture_tourism_landmark_tower_travel"><path d="M166.85,302.57l.4,0a5.47,5.47,0,0,0,5.45-5.07l.07-1a5.46,5.46,0,1,0-10.9-.78l-.07,1A5.45,5.45,0,0,0,166.85,302.57Z"/><path d="M191.86,34.5a5.48,5.48,0,0,0-5.05-5.86l-.59,0a5.47,5.47,0,1,0-.81,10.9l.6,0h.41A5.46,5.46,0,0,0,191.86,34.5Z"/><path d="M127.81,393.21l-.75,10.27a5.48,5.48,0,0,0,5.06,5.85h.4a5.47,5.47,0,0,0,5.45-5.07l.74-10.27a5.46,5.46,0,1,0-10.9-.79Z"/><path d="M128.94,85.29a5.47,5.47,0,0,0,5.45-5.07L135.13,70a5.46,5.46,0,0,0-10.9-.79l-.75,10.27a5.47,5.47,0,0,0,5.06,5.85Z"/><path d="M178,73.05l-.74,10.27a5.46,5.46,0,0,0,5.05,5.85h.4a5.47,5.47,0,0,0,5.45-5.07l.74-10.27a5.46,5.46,0,1,0-10.9-.79Z"/><path d="M5.47,434.61a5.47,5.47,0,1,0,0,10.93H236a5.47,5.47,0,0,0,0-10.93H162.79l3.56-49.33a5.46,5.46,0,1,0-10.9-.79l-3.62,50.12H108.76l4.91-67.84,96.58,7L207.12,417a5.46,5.46,0,0,0,5.06,5.84l.4,0a5.47,5.47,0,0,0,5.45-5.07l3.52-48.69a5.46,5.46,0,0,0-5.06-5.84L109,355.48a5.45,5.45,0,0,0-5.84,5.06L97.8,434.61H54.74l5.18-71.72,24.78,1.79a5.46,5.46,0,0,0,.79-10.9l-30.23-2.19h0l-10.4-.75.75-10.35,182,13.16-.54,7.5a5.47,5.47,0,0,0,5.06,5.85h.4a5.47,5.47,0,0,0,5.45-5.07l.93-12.95a5.48,5.48,0,0,0-5.06-5.85l-10.39-.75,5.65-78.09,10.39.76h.4a5.47,5.47,0,0,0,5.45-5.07l1.53-21.26a5.44,5.44,0,0,0-5.05-5.84l-64.14-4.64,5.64-78.09,42.84,3.1-4.11,57a5.46,5.46,0,0,0,5,5.84h.4A5.47,5.47,0,0,0,233,211l4.12-56.95,10.39.75.4,0a5.48,5.48,0,0,0,5.45-5.08l1.54-21.25a5.48,5.48,0,0,0-5.06-5.85l-19.64-1.42a5.47,5.47,0,0,0-.79,10.91l14.19,1-.75,10.35L94,132.75a5.47,5.47,0,0,0-.78,10.91l25.47,1.84-5.65,78.09-42.84-3.1,6-83.54h0a5.43,5.43,0,0,0-.67-3,.36.36,0,0,0,0-.09,3.21,3.21,0,0,0-.21-.3,5.42,5.42,0,0,0-4.14-2.43l-10.39-.76L61.56,120l146.07,10.56h0l.37,0,.27,0a5.85,5.85,0,0,0,.72-.07l.15,0a5.45,5.45,0,0,0,4.32-4.94,1.08,1.08,0,0,1,0-.18l5-69.36a5.46,5.46,0,0,0-10.9-.79L203,119.27l-44.14-3.2L164.45,38l6,.43a5.47,5.47,0,0,0,.79-10.91L90.28,21.66,91,11.31l139,10.06-.75,10.35L205.41,30a5.46,5.46,0,0,0-.79,10.9L234,43l.4,0A5.47,5.47,0,0,0,239.81,38l1.54-21.26a5.46,5.46,0,0,0-5.06-5.84L86.36,0a5.45,5.45,0,0,0-5.84,5.05L79,26.33A5.46,5.46,0,0,0,84,32.17l14.46,1L94.25,92a5.46,5.46,0,0,0,5.06,5.84l.4,0a5.46,5.46,0,0,0,5.44-5.07L109.4,34l44.15,3.19-5.65,78.09-91-6.59a5.46,5.46,0,0,0-5.84,5.06L49.51,135a5.46,5.46,0,0,0,5.06,5.84l10.39.75L59.32,219.7,48.92,219A5.46,5.46,0,0,0,43.07,224l-1.53,21.26a5.45,5.45,0,0,0,5.06,5.84l10.39.76-4.23,58.49a5.47,5.47,0,0,0,5.06,5.85h.4a5.45,5.45,0,0,0,5.44-5.07l4.23-58.5,42.84,3.1-5.64,78.09-6.32-.46,1.93-26.72a14.82,14.82,0,0,0-29.57-2.14L69.2,331.23l-28.25-2a5.47,5.47,0,0,0-5.85,5.06L33.57,355.5a5.46,5.46,0,0,0,5,5.85l10.4.75-5.24,72.51ZM129.61,146.29l42.84,3.09-5.65,78.09-6.63-.48,1.93-26.72a14.82,14.82,0,1,0-29.57-2.14l-1.93,26.72-6.64-.48Zm19.65,79.91-7.76-.56,1.93-26.72a3.92,3.92,0,0,1,4.17-3.6,3.89,3.89,0,0,1,3.6,4.16Zm-95.68,4,182,13.17-.75,10.35-182-13.16Zm68.06,26.29,42.84,3.1-1.25,17.26a5.46,5.46,0,0,0,5.06,5.84l.4,0a5.46,5.46,0,0,0,5.44-5.08l1.25-17.25,42.84,3.1-5.64,78.08-42.84-3.1,1.57-21.71A5.47,5.47,0,0,0,160.4,316l-1.57,21.72L116,334.62ZM82,305.3a3.89,3.89,0,0,1,7.76.56l-1.93,26.72L80.11,332Z"/><path d="M277.28,445.54a5.47,5.47,0,1,0,0-10.93H264.75a5.47,5.47,0,1,0,0,10.93Z"/></g></g></svg>